<svg width="122" height="87" viewBox="0 0 122 87" fill="none" xmlns="http://www.w3.org/2000/svg">
<path d="M81.2277 15.0609L82.5898 14.3452L82.325 15.8519L83.4222 16.9066L81.9088 17.1326L81.2277 18.4887L80.5467 17.1326L79.0332 16.9066L80.1305 15.8519L79.9034 14.3452L81.2277 15.0609Z" fill="#29ABE2"/>
<path d="M74.7572 28.9224L76.3085 28.0938L76.0058 29.8265L77.2544 30.9942L75.5518 31.2578L74.7572 32.8022L74.0005 31.2578L72.2979 30.9942L73.5464 29.8265L73.2438 28.0938L74.7572 28.9224Z" fill="#29ABE2"/>
<path d="M51.8663 33.6313L53.7581 32.6143L53.3797 34.7236L54.931 36.2304L52.8122 36.5317L51.8663 38.4527L50.9204 36.5317L48.7637 36.2304L50.315 34.7236L49.9366 32.6143L51.8663 33.6313Z" fill="#29ABE2"/>
<path d="M82.7025 59.8101L84.2538 58.9814L83.9511 60.7142L85.1997 61.8819L83.4971 62.1455L82.7025 63.6899L81.9458 62.1455L80.2432 61.8819L81.4918 60.7142L81.1891 58.9814L82.7025 59.8101Z" fill="#29ABE2"/>
<path d="M101.81 44.8936C101.545 44.8936 101.281 44.856 101.016 44.856C95.8321 44.856 90.8377 46.9653 87.2433 50.6945C83.9515 49.2254 80.3192 48.5097 76.7248 48.6227C73.8114 48.7357 70.9358 49.3384 68.2872 50.5061C65.8657 48.5474 62.9145 47.3044 59.8497 46.89C58.9417 46.89 57.9957 46.8147 57.0877 46.7393C54.0608 46.8147 51.1095 47.681 48.4988 49.2631C47.6664 48.8487 46.7962 48.4721 45.9259 48.1707C43.3531 47.229 40.591 46.7393 37.829 46.7393C34.121 46.7393 30.4509 47.6057 27.1591 49.2631C24.4349 47.6057 21.3323 46.7393 18.154 46.7393C8.6571 46.7393 0.938477 54.4236 0.938477 63.8782C0.938477 63.9535 0.938477 63.9912 0.938477 64.0665H2.45193C2.45193 63.9912 2.45193 63.9535 2.45193 63.8782C2.45193 55.2522 9.4895 48.2461 18.154 48.2461C21.2188 48.2461 24.17 49.1124 26.7051 50.7698L27.0834 50.9958L27.4618 50.7698C30.64 49.1124 34.1967 48.2084 37.829 48.2084C41.4612 48.2084 45.0179 49.0747 48.1961 50.7698L48.5745 50.9958L48.6502 50.9581L48.9529 50.7698C51.4879 49.1124 54.477 48.2461 57.5039 48.2461C61.2118 48.2461 64.8441 49.5644 67.644 51.9752L68.0224 52.2765L68.4764 52.0882C71.0871 50.9205 73.887 50.2424 76.8004 50.1671C80.3949 50.0541 83.8758 50.7698 87.1298 52.3142L87.6216 52.5402L88 52.1258C91.2539 48.5474 95.8321 46.4757 100.675 46.4003C100.789 46.4003 100.94 46.4003 101.054 46.4003C110.74 46.4003 118.647 54.2729 118.647 63.9158C118.647 63.9912 118.647 64.0288 118.647 64.1042H120.161C120.161 64.0288 120.161 63.9912 120.161 63.9158C120.123 53.6325 111.988 45.2703 101.81 44.8936Z" fill="#29ABE2"/>
<path d="M76.7246 48.6229C80.3191 48.5099 83.9514 49.1879 87.2432 50.6946C90.8376 46.9655 95.832 44.8561 101.016 44.8561C101.28 44.8561 101.545 44.8561 101.81 44.8938C110.172 33.2921 110.021 17.8107 100.259 6.84938C98.1779 4.51398 95.832 2.55526 93.2591 0.935547C99.4265 13.7049 95.7185 29.4877 83.2325 39.1683C76.3463 44.4794 68.0223 47.0408 59.8496 46.8902C62.9144 47.3045 65.8278 48.5475 68.2871 50.5063C70.9735 49.3762 73.8112 48.7359 76.7246 48.6229Z" fill="#29ABE2"/>
<path d="M57.0876 46.7394C51.6014 46.2498 46.3043 44.517 41.6504 41.6543C42.7476 43.952 44.1854 46.1368 45.9259 48.1708C46.7961 48.4722 47.6664 48.8488 48.4988 49.2632C51.0716 47.6811 54.0229 46.8148 57.0876 46.7394Z" fill="#29ABE2"/>
<path d="M57.5041 46.7397C57.3527 46.7397 57.2014 46.7397 57.0879 46.7397C57.996 46.8151 58.9419 46.8904 59.8499 46.8904C59.0554 46.7774 58.2987 46.7397 57.5041 46.7397Z" fill="#29ABE2"/>
<path d="M40.4018 57.7762L41.6883 57.0981L41.4234 58.4918L42.445 59.4712L41.045 59.6972L40.4018 60.9402L39.7964 59.6972L38.3965 59.4712L39.4181 58.4918L39.1532 57.0981L40.4018 57.7762Z" fill="#29ABE2"/>
<path d="M60.1527 56.3447L61.5527 55.5913L61.2878 57.1734L62.4229 58.2657L60.8338 58.4917L60.1527 59.9231L59.4339 58.4917L57.8447 58.2657L59.0177 57.1734L58.715 55.5913L60.1527 56.3447Z" fill="#29ABE2"/>
<path d="M97.686 67.9089L98.8589 67.2686L98.6319 68.5869L99.5778 69.491L98.2914 69.6793L97.686 70.847L97.1185 69.6793L95.832 69.491L96.7401 68.5869L96.5509 67.2686L97.686 67.9089Z" fill="#29ABE2"/>
<path d="M23.3755 61.0155L15.9218 73.5965L13.5003 72.1651L18.192 64.2926L8.80854 69.4154L6.72754 68.1723L14.1813 55.5913L16.6028 57.0227L11.7598 65.1589L21.3702 59.8478L23.3755 61.0155Z" fill="#29ABE2"/>
<path d="M27.1972 73.3328L32.3808 67.758L34.0835 68.2853L33.5159 79.3973L30.9809 78.6439L31.4349 72.1651L26.4783 77.2879L25.4189 76.9489L24.246 69.9804L20.9921 75.6305L18.457 74.8772L24.2082 65.3096L25.9108 65.8369L27.1972 73.3328Z" fill="#29ABE2"/>
<path d="M37.9051 79.9625L35.2188 79.5481L36.9214 68.8882L46.3048 70.3572L44.6022 81.0172L41.9158 80.6028L43.2022 72.5043L39.1916 71.8639L37.9051 79.9625Z" fill="#29ABE2"/>
<path d="M58.2608 77.2878L49.5206 76.7982C49.5962 77.5892 49.8989 78.1919 50.4286 78.6815C50.9583 79.1712 51.6394 79.4349 52.4718 79.4726C53.4934 79.5479 54.3636 79.2089 55.1582 78.5685L57.3905 79.7739C56.7851 80.5649 56.0663 81.0923 55.2339 81.4313C54.4015 81.7703 53.4555 81.921 52.3583 81.8456C50.6557 81.7326 49.2935 81.1299 48.3098 79.9999C47.2882 78.8699 46.8342 77.5138 46.9477 75.8941C47.0234 74.2368 47.6666 72.9184 48.7638 71.9014C49.8989 70.8843 51.261 70.3946 52.8502 70.5077C54.5528 70.6207 55.9149 71.2233 56.9365 72.3534C57.9581 73.4834 58.4121 74.9524 58.2986 76.7605L58.2608 77.2878ZM55.6501 74.9901C55.4987 74.3874 55.196 73.8601 54.6663 73.4457C54.1744 73.0314 53.5691 72.8054 52.8502 72.7677C52.0934 72.73 51.4124 72.9184 50.807 73.2951C50.4286 73.5211 50.0881 73.9731 49.7476 74.6511L55.6501 74.9901Z" fill="#29ABE2"/>
<path d="M62.2335 70.96L62.2713 72.1653C62.7254 71.638 63.2551 71.2613 63.8226 70.9976C64.3902 70.734 64.9956 70.5833 65.6388 70.5456C67.0387 70.4703 68.2873 70.96 69.3089 71.977C70.3305 72.994 70.898 74.3501 70.9737 76.0074C71.0494 77.6272 70.5953 78.9832 69.6116 80.1132C68.6279 81.2433 67.4549 81.8459 66.055 81.8836C65.4118 81.9213 64.8442 81.8083 64.3145 81.6199C63.7848 81.4316 63.2173 81.0926 62.6497 80.6029L62.8767 85.6881L60.1903 85.8011L59.585 71.073L62.2335 70.96ZM65.1847 73.0694C64.3145 73.107 63.6335 73.4084 63.1037 74.0487C62.574 74.6514 62.3092 75.4424 62.347 76.3841C62.3849 77.3258 62.6875 78.1168 63.2929 78.6819C63.8983 79.2469 64.6172 79.5105 65.4496 79.4729C66.282 79.4352 66.963 79.0962 67.4928 78.4935C68.0225 77.8532 68.2873 77.0998 68.2495 76.1581C68.2116 75.2164 67.909 74.5007 67.3036 73.8981C66.6982 73.2954 66.0171 73.0317 65.1847 73.0694Z" fill="#29ABE2"/>
<path d="M74.6436 80.9791L73.2058 81.1674L71.6924 70.4698L74.3031 70.0931L75.2112 76.3836L79.8272 69.3021L81.1136 69.1138L82.6271 79.8114L80.0164 80.1881L79.1462 74.0482L74.6436 80.9791Z" fill="#29ABE2"/>
<path d="M90.2704 66.8915L92.9189 66.1758L95.7188 76.6097L93.0702 77.3254L92.7676 76.2331C92.3892 76.8734 91.973 77.3254 91.5189 77.7021C91.0649 78.0411 90.5352 78.3048 89.9298 78.4555C88.5677 78.8321 87.2813 78.6061 85.9948 77.8151C84.7084 77.0241 83.876 75.8564 83.4598 74.312C83.0436 72.6923 83.1571 71.2609 83.8382 69.9802C84.5192 68.6995 85.5408 67.8708 86.9029 67.4942C87.5461 67.3435 88.1515 67.3058 88.7569 67.3811C89.3623 67.4565 89.9677 67.6825 90.573 68.0215L90.2704 66.8915ZM88.0758 69.7542C87.2813 69.9802 86.6759 70.4322 86.2975 71.1479C85.9192 71.8636 85.8435 72.6546 86.0705 73.5586C86.2975 74.4627 86.7894 75.1407 87.4705 75.555C88.1894 76.0071 88.9082 76.1201 89.7406 75.894C90.573 75.668 91.1784 75.216 91.5568 74.5003C91.9352 73.7847 92.0108 72.956 91.7838 72.0519C91.5568 71.1479 91.0649 70.4699 90.3839 70.0556C89.665 69.6412 88.9082 69.5282 88.0758 69.7542Z" fill="#29ABE2"/>
<path d="M112.367 68.3985L103.286 61.3547L105.405 72.655L102.87 74.1993L100.032 58.7933L102.454 57.3242L114.94 66.8541L112.367 68.3985Z" fill="#29ABE2"/>
</svg>
